# xmcd
#
# Track frame offsets:
#	150
#	16961
#	35505
#	51467
#	66814
#	86878
#	101113
#	118234
#	132648
#	146767
#	160779
#	173844
#	190227
#	204137
#	218134
#	235340
#
# Disc length: 3357 seconds
#
# Revision: 1
# Processed by: cddbd v1.5.2PL0 Copyright (c) Steve Scherf et al.
# Submitted via: audiograbber 1.83.01
#
DISCID=f00d1b10
DTITLE=Various Artist - Breakfast Special - KAO Infosystems Promo CD
DYEAR=1995
DGENRE=Country
TTITLE0=12 Gauge - Blind Faith
TTITLE1=Karina Long - Do Ya Want My Love?
TTITLE2=Geordie Barnett - Father Father
TTITLE3=Debbie Bergeron - Is It All in My Heart
TTITLE4=John Prince and Piece of the Rock - It All Comes Down to You and Me
TTITLE5=Lisa Erskine - Losin' End
TTITLE6=Valdy - Peace of Mind
TTITLE7=Jeff Alan - Redneck With the Blues
TTITLE8=Harry Bryan - Ride the Wind
TTITLE9=Stephanie Thomson - Rockit Scientist
TTITLE10=DuBay - She Talks It Out
TTITLE11=Amber LeMouel - Tell My Why
TTITLE12=Yolanda King - There Ain't Nobody But You
TTITLE13=Larry Berrio - This Sure Ain't No Hollywood
TTITLE14=Jamie Warren (With Chris Mohr and Steve Tasker) - Too Hip for the Room
TTITLE15=Faster Gun - Workin' the Land
EXTD=
EXTT0=
EXTT1=
EXTT2=
EXTT3=
EXTT4=
EXTT5=
EXTT6=
EXTT7=
EXTT8=
EXTT9=
EXTT10=
EXTT11=
EXTT12=
EXTT13=
EXTT14=
EXTT15=
PLAYORDER=
